<mxfile host="app.diagrams.net" modified="2023-07-29T17:52:07.165Z" agent="Mozilla/5.0 (X11; Ubuntu; Linux x86_64; rv:109.0) Gecko/20100101 Firefox/114.0" etag="mijPMiIWqhKAzDU2j1sH" version="21.6.5" type="github">
  <diagram name="Page-1" id="M1CsRq_343aXkAHNXNq5">
    <mxGraphModel dx="1434" dy="822" grid="1" gridSize="10" guides="1" tooltips="1" connect="1" arrows="1" fold="1" page="1" pageScale="1" pageWidth="850" pageHeight="1100" math="0" shadow="0">
      <root>
        <mxCell id="0" />
        <mxCell id="1" parent="0" />
        <mxCell id="RR-0q48QuoGJooBJ1ncM-1" value="Container" style="swimlane;" parent="1" vertex="1">
          <mxGeometry x="20" y="30" width="190" height="190" as="geometry" />
        </mxCell>
        <mxCell id="RR-0q48QuoGJooBJ1ncM-4" value="&lt;div style=&quot;font-size: 36px;&quot;&gt;website&lt;/div&gt;" style="text;html=1;align=center;verticalAlign=middle;resizable=0;points=[];autosize=1;strokeColor=none;fillColor=none;fontSize=36;" parent="RR-0q48QuoGJooBJ1ncM-1" vertex="1">
          <mxGeometry x="29" y="70" width="140" height="60" as="geometry" />
        </mxCell>
        <mxCell id="RR-0q48QuoGJooBJ1ncM-8" style="edgeStyle=orthogonalEdgeStyle;rounded=0;orthogonalLoop=1;jettySize=auto;html=1;" parent="1" source="RR-0q48QuoGJooBJ1ncM-7" edge="1">
          <mxGeometry relative="1" as="geometry">
            <mxPoint x="400" y="125" as="targetPoint" />
          </mxGeometry>
        </mxCell>
        <mxCell id="RR-0q48QuoGJooBJ1ncM-7" value="&lt;div&gt;Data&lt;/div&gt;" style="rounded=0;whiteSpace=wrap;html=1;" parent="1" vertex="1">
          <mxGeometry x="450" y="95" width="120" height="60" as="geometry" />
        </mxCell>
        <mxCell id="RR-0q48QuoGJooBJ1ncM-10" style="edgeStyle=orthogonalEdgeStyle;rounded=0;orthogonalLoop=1;jettySize=auto;html=1;" parent="1" source="RR-0q48QuoGJooBJ1ncM-9" edge="1">
          <mxGeometry relative="1" as="geometry">
            <mxPoint x="220" y="125" as="targetPoint" />
          </mxGeometry>
        </mxCell>
        <mxCell id="RR-0q48QuoGJooBJ1ncM-9" value="&lt;div&gt;google maps api&lt;/div&gt;" style="rounded=0;whiteSpace=wrap;html=1;" parent="1" vertex="1">
          <mxGeometry x="270" y="95" width="120" height="60" as="geometry" />
        </mxCell>
        <mxCell id="JUZIxkAaD5yiNfpUyIjg-1" value="&lt;div&gt;TODO -&amp;gt; CHANGE MAP ON CLICK&lt;/div&gt;MAKE IT ABLE TO SELECT THE LKW&#39;S FROM LIST&lt;br&gt;BETTER DESIGN PLEASE" style="text;html=1;align=center;verticalAlign=middle;resizable=0;points=[];autosize=1;strokeColor=none;fillColor=none;" parent="1" vertex="1">
          <mxGeometry x="75" y="310" width="310" height="60" as="geometry" />
        </mxCell>
      </root>
    </mxGraphModel>
  </diagram>
</mxfile>
